<?xml version="1.0" encoding="utf-8"?>
<svg width="40" height="40" viewBox="0 0 40 40" xmlns="http://www.w3.org/2000/svg">
  <path style="stroke:none;fill-rule:nonzero;fill:#b094ff;fill-opacity:1" d="M 27.785 13.887 L 27.082 13.266 L 27.785 13.887 Z M 30.273 13.73 L 29.653 14.434 L 29.66 14.441 L 29.668 14.445 L 30.273 13.73 Z M 31.352 23.582 L 30.414 23.641 L 30.473 24.578 L 31.41 24.52 L 31.352 23.582 Z M 36.937 25.66 L 36.301 24.973 L 36.285 24.988 L 36.937 25.66 Z M 29.641 25.508 C 29.301 25.528 29.18 25.449 29.133 25.406 L 27.891 26.812 C 28.418 27.277 29.086 27.422 29.754 27.379 L 29.641 25.508 Z M 29.133 25.406 C 29.09 25.367 28.988 25.254 28.969 24.898 L 27.098 25.016 C 27.137 25.687 27.359 26.344 27.891 26.812 L 29.133 25.406 Z M 28.969 24.898 L 28.355 15.055 L 26.485 15.172 L 27.098 25.016 L 28.969 24.898 Z M 28.355 15.055 C 28.335 14.742 28.41 14.598 28.488 14.508 L 27.082 13.266 C 26.609 13.805 26.437 14.473 26.484 15.172 L 28.355 15.055 Z M 28.488 14.508 C 28.582 14.402 28.734 14.305 29.051 14.285 L 28.934 12.415 C 28.219 12.457 27.566 12.719 27.082 13.265 L 28.488 14.508 Z M 29.051 14.285 C 29.387 14.262 29.555 14.344 29.652 14.434 L 30.895 13.027 C 30.344 12.543 29.652 12.367 28.934 12.414 L 29.051 14.285 Z M 29.668 14.445 C 29.766 14.527 29.855 14.66 29.875 14.961 L 31.746 14.844 C 31.703 14.133 31.438 13.488 30.879 13.016 L 29.668 14.445 Z M 29.875 14.961 L 30.415 23.641 L 32.285 23.523 L 31.746 14.843 L 29.875 14.961 Z M 31.41 24.52 L 35.648 24.254 L 35.531 22.383 L 31.293 22.648 L 31.41 24.52 Z M 35.648 24.254 C 36.07 24.227 36.218 24.313 36.25 24.336 C 36.25 24.34 36.328 24.383 36.344 24.66 L 38.214 24.543 C 38.176 23.898 37.941 23.27 37.383 22.843 C 36.848 22.438 36.18 22.343 35.531 22.383 L 35.648 24.254 Z M 36.344 24.66 C 36.354 24.75 36.347 24.842 36.324 24.93 C 36.313 24.96 36.304 24.969 36.301 24.973 L 37.578 26.348 C 38.102 25.855 38.258 25.191 38.215 24.543 L 36.344 24.66 Z M 36.285 24.988 C 36.273 25 36.145 25.102 35.703 25.128 L 35.82 27 C 36.46 26.96 37.117 26.793 37.594 26.332 L 36.285 24.988 Z M 35.703 25.128 L 29.641 25.508 L 29.754 27.378 L 35.82 27 L 35.703 25.128 Z M 35.703 25.128"/>
  <path style="stroke:none;fill-rule:nonzero;fill:#edd7ff;fill-opacity:1" d="M 29.7 26.41 C 29.195 26.441 28.8 26.332 28.512 26.078 C 28.227 25.824 28.066 25.441 28.035 24.926 L 27.422 15.082 C 27.391 14.578 27.512 14.168 27.789 13.855 C 28.074 13.527 28.477 13.352 28.996 13.316 C 29.523 13.286 29.949 13.414 30.277 13.699 C 30.602 13.977 30.781 14.367 30.812 14.871 L 31.352 23.551 L 35.594 23.289 C 36.66 23.223 37.227 23.649 37.281 24.57 C 37.313 25.035 37.199 25.39 36.941 25.629 C 36.695 25.863 36.305 26 35.761 26.035 L 29.7 26.41 Z M 29.7 26.41"/>
  <path style="stroke:none;fill-rule:nonzero;fill:#94e5ff;fill-opacity:1" d="M 24.91 15.035 L 24.348 15.785 L 24.352 15.789 L 24.359 15.793 L 24.91 15.035 Z M 25.691 24.527 L 24.969 23.934 L 24.965 23.934 L 24.965 23.938 L 25.691 24.527 Z M 22.961 26.317 L 22.699 25.418 L 22.695 25.418 L 22.691 25.422 L 22.961 26.317 Z M 22.348 23.285 L 22.878 24.059 L 22.348 23.285 Z M 23.328 17.665 L 22.566 18.211 L 22.57 18.215 L 22.57 18.219 L 23.328 17.665 Z M 19.047 15.98 L 19.207 15.055 L 18.285 14.895 L 18.125 15.82 L 19.047 15.98 Z M 17.75 23.422 L 16.824 23.262 L 16.664 24.184 L 17.59 24.344 L 17.75 23.422 Z M 15.64 24.875 C 15.305 24.82 15.207 24.711 15.168 24.66 L 13.637 25.738 C 14.039 26.313 14.657 26.609 15.317 26.723 L 15.64 24.875 Z M 15.168 24.66 C 15.133 24.61 15.066 24.477 15.125 24.145 L 13.277 23.825 C 13.164 24.485 13.23 25.165 13.637 25.738 L 15.168 24.66 Z M 15.125 24.145 L 16.825 14.41 L 14.977 14.09 L 13.277 23.824 L 15.125 24.145 Z M 16.825 14.41 C 16.883 14.078 16.988 13.977 17.039 13.941 L 15.961 12.406 C 15.387 12.812 15.09 13.426 14.977 14.09 L 16.825 14.41 Z M 17.039 13.941 C 17.089 13.906 17.223 13.84 17.555 13.898 L 17.879 12.051 C 17.215 11.934 16.535 12.004 15.961 12.406 L 17.039 13.941 Z M 17.555 13.898 L 21.23 14.539 L 21.55 12.691 L 17.879 12.051 L 17.555 13.898 Z M 21.23 14.539 C 22.54 14.766 23.562 15.191 24.348 15.785 L 25.477 14.285 C 24.402 13.477 23.082 12.957 21.551 12.691 L 21.23 14.539 Z M 24.36 15.793 C 25.156 16.375 25.7 17.098 26.012 17.965 L 27.773 17.332 C 27.332 16.094 26.551 15.074 25.465 14.277 L 24.36 15.793 Z M 26.012 17.965 C 26.324 18.84 26.398 19.855 26.192 21.051 L 28.039 21.371 C 28.293 19.921 28.219 18.566 27.773 17.332 L 26.012 17.965 Z M 26.192 21.051 C 25.98 22.258 25.562 23.203 24.969 23.934 L 26.418 25.121 C 27.254 24.098 27.785 22.836 28.039 21.371 L 26.192 21.051 Z M 24.965 23.937 C 24.391 24.645 23.645 25.141 22.699 25.418 L 23.227 27.218 C 24.52 26.836 25.594 26.137 26.422 25.118 L 24.965 23.937 Z M 22.691 25.422 C 21.758 25.699 20.637 25.75 19.316 25.516 L 18.992 27.363 C 20.532 27.633 21.953 27.598 23.23 27.215 L 22.691 25.422 Z M 19.316 25.516 L 15.641 24.875 L 15.316 26.723 L 18.992 27.363 L 19.316 25.516 Z M 19.226 24.629 C 20.609 24.871 21.879 24.746 22.879 24.059 L 21.816 22.516 C 21.367 22.82 20.664 22.976 19.546 22.786 L 19.226 24.629 Z M 22.879 24.059 C 23.899 23.355 24.465 22.195 24.711 20.793 L 22.863 20.469 C 22.668 21.589 22.273 22.199 21.816 22.516 L 22.879 24.059 Z M 24.711 20.793 C 24.953 19.391 24.816 18.109 24.086 17.109 L 22.57 18.22 C 22.89 18.653 23.059 19.349 22.863 20.47 L 24.711 20.793 Z M 24.09 17.117 C 23.383 16.129 22.23 15.582 20.848 15.344 L 20.523 17.187 C 21.637 17.383 22.25 17.77 22.566 18.211 L 24.09 17.117 Z M 20.848 15.344 L 19.207 15.054 L 18.887 16.902 L 20.523 17.187 L 20.848 15.344 Z M 18.125 15.82 L 16.825 23.262 L 18.672 23.582 L 19.972 16.141 L 18.125 15.82 Z M 17.59 24.344 L 19.227 24.629 L 19.547 22.785 L 17.91 22.496 L 17.59 24.344 Z M 17.59 24.344"/>
  <path style="stroke:none;fill-rule:nonzero;fill:#d7f8ff;fill-opacity:1" d="M 15.445 25.8 C 14.949 25.715 14.59 25.512 14.371 25.2 C 14.152 24.887 14.082 24.48 14.171 23.984 L 15.867 14.25 C 15.957 13.754 16.157 13.395 16.469 13.172 C 16.781 12.953 17.187 12.887 17.684 12.972 L 21.359 13.613 C 22.777 13.863 23.953 14.336 24.879 15.035 C 25.824 15.723 26.484 16.594 26.863 17.648 C 27.243 18.703 27.313 19.891 27.082 21.211 C 26.852 22.547 26.379 23.652 25.66 24.527 C 24.96 25.391 24.05 25.988 22.93 26.317 C 21.824 26.648 20.555 26.691 19.121 26.441 L 15.445 25.8 Z M 19.355 23.707 C 20.605 23.926 21.594 23.785 22.316 23.285 C 23.055 22.777 23.536 21.895 23.754 20.633 C 23.973 19.371 23.82 18.379 23.297 17.664 C 22.785 16.949 21.902 16.484 20.652 16.266 L 19.016 15.98 L 17.719 23.422 L 19.355 23.707 Z M 19.355 23.707"/>
  <path style="stroke:none;fill-rule:nonzero;fill:#ffb3b3;fill-opacity:1" d="M 14.934 23.035 L 14.316 23.742 L 14.328 23.754 L 14.34 23.762 L 14.934 23.035 Z M 15.125 25.172 L 14.41 24.562 L 15.125 25.172 Z M 12.777 25.234 L 13.395 24.527 L 12.777 25.234 Z M 7.094 20.285 L 7.707 19.578 L 5.969 18.066 L 6.156 20.363 L 7.094 20.285 Z M 7.086 25.902 L 7.789 26.523 L 7.797 26.516 L 7.801 26.508 L 7.086 25.902 Z M 4.602 26.105 L 3.98 26.809 L 4.012 26.832 L 4.602 26.105 Z M 3.602 13.828 L 2.887 13.218 L 3.602 13.828 Z M 6.086 13.625 L 5.476 14.34 L 5.484 14.344 L 5.492 14.352 L 6.086 13.625 Z M 6.973 18.832 L 6.039 18.91 L 6.223 21.176 L 7.69 19.437 L 6.973 18.832 Z M 11.719 13.199 L 12.438 13.805 L 12.441 13.801 L 12.445 13.793 L 11.719 13.199 Z M 13.871 12.989 L 13.266 13.703 L 13.273 13.707 L 13.277 13.715 L 13.871 12.989 Z M 13.977 15.164 L 13.27 14.547 L 13.27 14.551 L 13.266 14.551 L 13.977 15.164 Z M 10.504 19.176 L 9.793 18.559 L 9.183 19.266 L 9.887 19.879 L 10.504 19.176 Z M 14.34 23.762 C 14.508 23.898 14.555 24.016 14.563 24.141 L 16.433 23.988 C 16.379 23.305 16.047 22.734 15.527 22.313 L 14.34 23.762 Z M 14.563 24.141 C 14.574 24.281 14.543 24.406 14.41 24.562 L 15.84 25.777 C 16.27 25.27 16.488 24.66 16.434 23.988 L 14.563 24.141 Z M 14.41 24.562 C 14.281 24.715 14.16 24.773 14 24.785 L 14.152 26.652 C 14.81 26.602 15.42 26.286 15.84 25.777 L 14.41 24.562 Z M 14 24.785 C 13.852 24.797 13.66 24.758 13.395 24.527 L 12.16 25.937 C 12.723 26.43 13.395 26.715 14.152 26.652 L 14 24.785 Z M 13.395 24.527 L 7.707 19.578 L 6.477 20.992 L 12.164 25.942 L 13.395 24.527 Z M 6.156 20.363 L 6.512 24.707 L 8.382 24.555 L 8.027 20.211 L 6.156 20.363 Z M 6.512 24.707 C 6.539 25.023 6.465 25.187 6.375 25.297 L 7.801 26.507 C 8.273 25.953 8.441 25.27 8.383 24.555 L 6.512 24.707 Z M 6.387 25.281 C 6.301 25.379 6.145 25.484 5.797 25.511 L 5.949 27.379 C 6.656 27.324 7.309 27.066 7.789 26.523 L 6.387 25.281 Z M 5.797 25.511 C 5.469 25.539 5.301 25.465 5.195 25.379 L 4.012 26.832 C 4.566 27.285 5.246 27.437 5.949 27.379 L 5.797 25.511 Z M 5.223 25.402 C 5.121 25.312 5.02 25.16 4.996 24.832 L 3.125 24.984 C 3.184 25.688 3.445 26.332 3.98 26.809 L 5.223 25.402 Z M 4.996 24.832 L 4.191 14.984 L 2.321 15.137 L 3.125 24.984 L 4.996 24.832 Z M 4.191 14.984 C 4.164 14.672 4.238 14.524 4.313 14.434 L 2.886 13.219 C 2.421 13.766 2.265 14.441 2.319 15.137 L 4.191 14.984 Z M 4.313 14.434 C 4.406 14.328 4.555 14.227 4.871 14.199 L 4.72 12.332 C 4.005 12.391 3.356 12.664 2.888 13.219 L 4.313 14.434 Z M 4.871 14.199 C 5.207 14.172 5.375 14.25 5.477 14.339 L 6.69 12.91 C 6.128 12.434 5.437 12.273 4.718 12.332 L 4.871 14.199 Z M 5.492 14.352 C 5.59 14.43 5.684 14.559 5.707 14.859 L 7.578 14.707 C 7.52 14 7.242 13.355 6.676 12.898 L 5.492 14.352 Z M 5.707 14.859 L 6.039 18.91 L 7.906 18.758 L 7.578 14.707 L 5.707 14.859 Z M 7.691 19.438 L 12.438 13.805 L 11.004 12.598 L 6.258 18.227 L 7.691 19.438 Z M 12.445 13.793 C 12.602 13.605 12.727 13.559 12.844 13.551 L 12.688 11.68 C 11.996 11.738 11.422 12.082 10.996 12.605 L 12.445 13.793 Z M 12.844 13.551 C 12.98 13.539 13.105 13.571 13.266 13.703 L 14.476 12.273 C 13.985 11.84 13.339 11.626 12.687 11.68 L 12.844 13.551 Z M 13.277 13.715 C 13.422 13.832 13.473 13.938 13.484 14.075 L 15.352 13.922 C 15.301 13.269 14.979 12.668 14.465 12.262 L 13.277 13.715 Z M 13.484 14.075 C 13.492 14.172 13.469 14.32 13.27 14.547 L 14.68 15.785 C 15.133 15.265 15.41 14.637 15.352 13.922 L 13.484 14.075 Z M 13.266 14.551 L 9.793 18.559 L 11.211 19.789 L 14.684 15.781 L 13.266 14.551 Z M 9.886 19.879 L 14.316 23.742 L 15.551 22.332 L 11.121 18.469 L 9.886 19.879 Z M 9.886 19.879"/>
  <path style="stroke:none;fill-rule:nonzero;fill:#ffe5d7;fill-opacity:1" d="M 14.934 23.035 C 15.277 23.316 15.464 23.66 15.5 24.066 C 15.531 24.469 15.406 24.84 15.125 25.172 C 14.868 25.493 14.488 25.691 14.078 25.719 C 13.625 25.758 13.191 25.594 12.778 25.234 L 7.094 20.285 L 7.445 24.629 C 7.488 25.145 7.371 25.57 7.085 25.902 C 6.805 26.222 6.398 26.402 5.871 26.445 C 5.355 26.488 4.934 26.375 4.601 26.105 C 4.281 25.82 4.101 25.422 4.059 24.906 L 3.254 15.06 C 3.214 14.556 3.328 14.146 3.602 13.83 C 3.882 13.497 4.282 13.31 4.797 13.267 C 5.324 13.224 5.754 13.345 6.086 13.626 C 6.414 13.896 6.602 14.282 6.641 14.782 L 6.973 18.833 L 11.719 13.2 C 12.012 12.845 12.359 12.65 12.766 12.614 C 13.172 12.583 13.539 12.708 13.871 12.989 C 14.203 13.259 14.383 13.595 14.418 14.001 C 14.449 14.407 14.301 14.794 13.977 15.165 L 10.504 19.177 L 14.934 23.035 Z M 14.934 23.035"/>
</svg>