<?xml version="1.0" encoding="utf-8"?>
<svg width="16" height="16" viewBox="0 0 16 16" xmlns="http://www.w3.org/2000/svg">
  <polygon fill="#9AA7B0" fill-opacity=".8" points="7 1 3 5 7 5"/>
  <polygon fill="#9AA7B0" fill-opacity=".8" points="8 1 8 6 3 6 3 8 13 8 13 1"/>
  <g style="" transform="matrix(0.736323, 0, 0, 0.736323, 2.061643, 1.616617)">
    <path style=" stroke:none;fill-rule:nonzero;fill:rgb(69.01961%,58.039218%,100%);fill-opacity:1;" d="M 12.895 11.006 L 12.543 10.698 L 12.895 11.006 Z M 14.137 10.932 L 13.828 11.284 L 13.832 11.284 L 13.836 11.288 L 14.137 10.932 Z M 14.676 15.858 L 14.207 15.885 L 14.238 16.354 L 14.703 16.323 L 14.676 15.858 Z M 17.469 16.893 L 17.152 16.549 L 17.145 16.557 L 17.469 16.893 Z M 13.82 16.819 C 13.652 16.831 13.59 16.788 13.566 16.768 L 12.945 17.471 C 13.207 17.706 13.543 17.776 13.879 17.753 L 13.82 16.819 Z M 13.566 16.768 C 13.543 16.749 13.496 16.694 13.484 16.514 L 12.547 16.573 C 12.57 16.909 12.68 17.237 12.945 17.471 L 13.566 16.768 Z M 13.484 16.514 L 13.176 11.592 L 12.242 11.651 L 12.547 16.573 L 13.484 16.514 Z M 13.176 11.592 C 13.168 11.436 13.207 11.362 13.246 11.319 L 12.543 10.698 C 12.305 10.967 12.219 11.303 12.242 11.651 L 13.176 11.592 Z M 13.246 11.319 C 13.289 11.264 13.367 11.217 13.523 11.206 L 13.469 10.272 C 13.109 10.295 12.781 10.424 12.543 10.698 L 13.246 11.319 Z M 13.523 11.206 C 13.695 11.198 13.777 11.237 13.828 11.284 L 14.449 10.581 C 14.172 10.335 13.828 10.249 13.469 10.272 L 13.523 11.206 Z M 13.836 11.288 C 13.883 11.331 13.93 11.393 13.938 11.545 L 14.871 11.487 C 14.852 11.131 14.719 10.807 14.441 10.573 L 13.836 11.288 Z M 13.938 11.545 L 14.207 15.885 L 15.145 15.827 L 14.871 11.487 L 13.938 11.545 Z M 14.703 16.323 L 16.824 16.194 L 16.766 15.256 L 14.645 15.389 L 14.703 16.323 Z M 16.824 16.194 C 17.035 16.178 17.109 16.221 17.125 16.233 C 17.125 16.233 17.164 16.256 17.172 16.393 L 18.109 16.338 C 18.09 16.014 17.973 15.698 17.691 15.487 C 17.426 15.284 17.09 15.237 16.766 15.256 L 16.824 16.194 Z M 17.172 16.393 C 17.176 16.467 17.168 16.51 17.164 16.53 C 17.156 16.545 17.152 16.549 17.152 16.549 L 17.789 17.237 C 18.051 16.995 18.129 16.659 18.109 16.338 L 17.172 16.393 Z M 17.145 16.557 C 17.137 16.565 17.074 16.616 16.852 16.631 L 16.91 17.565 C 17.23 17.545 17.559 17.463 17.797 17.229 L 17.145 16.557 Z M 16.852 16.631 L 13.82 16.819 L 13.879 17.753 L 16.91 17.565 L 16.852 16.631 Z M 16.852 16.631"/>
    <path style=" stroke:none;fill-rule:nonzero;fill:rgb(92.941177%,84.313726%,100%);fill-opacity:1;" d="M 13.848 17.272 C 13.598 17.288 13.398 17.233 13.258 17.104 C 13.113 16.979 13.031 16.784 13.016 16.526 L 12.711 11.604 C 12.695 11.354 12.754 11.151 12.895 10.991 C 13.039 10.831 13.238 10.741 13.496 10.725 C 13.762 10.706 13.977 10.772 14.137 10.917 C 14.301 11.053 14.391 11.249 14.406 11.499 L 14.676 15.842 L 16.797 15.71 C 17.332 15.674 17.613 15.889 17.641 16.35 C 17.656 16.585 17.598 16.76 17.469 16.878 C 17.348 16.999 17.152 17.065 16.883 17.081 L 13.848 17.272 Z M 13.848 17.272"/>
    <path style=" stroke:none;fill-rule:nonzero;fill:rgb(58.039218%,89.803922%,100%);fill-opacity:1;" d="M 11.457 11.581 L 11.172 11.956 L 11.176 11.96 L 11.18 11.96 L 11.457 11.581 Z M 11.848 16.327 L 11.484 16.03 L 11.484 16.034 L 11.48 16.034 L 11.848 16.327 Z M 10.48 17.225 L 10.348 16.776 L 10.48 17.225 Z M 10.172 15.71 L 10.441 16.092 L 10.172 15.71 Z M 10.664 12.897 L 10.285 13.17 L 10.285 13.174 L 10.664 12.897 Z M 8.523 12.053 L 8.605 11.592 L 8.141 11.514 L 8.063 11.975 L 8.523 12.053 Z M 7.875 15.776 L 7.414 15.694 L 7.332 16.159 L 7.793 16.237 L 7.875 15.776 Z M 6.82 16.503 C 6.652 16.475 6.602 16.42 6.586 16.397 L 5.816 16.936 C 6.02 17.221 6.328 17.37 6.66 17.428 L 6.82 16.503 Z M 6.586 16.397 C 6.566 16.37 6.535 16.303 6.563 16.139 L 5.641 15.975 C 5.582 16.307 5.617 16.647 5.816 16.936 L 6.586 16.397 Z M 6.563 16.139 L 7.41 11.272 L 6.488 11.108 L 5.641 15.975 L 6.563 16.139 Z M 7.41 11.272 C 7.441 11.104 7.492 11.053 7.52 11.034 L 6.98 10.268 C 6.691 10.471 6.547 10.78 6.488 11.108 L 7.41 11.272 Z M 7.52 11.034 C 7.547 11.018 7.609 10.983 7.777 11.014 L 7.938 10.088 C 7.609 10.034 7.27 10.065 6.98 10.268 L 7.52 11.034 Z M 7.777 11.014 L 9.613 11.335 L 9.777 10.409 L 7.938 10.088 L 7.777 11.014 Z M 9.613 11.335 C 10.27 11.448 10.781 11.663 11.172 11.956 L 11.738 11.21 C 11.203 10.803 10.543 10.545 9.777 10.409 L 9.613 11.335 Z M 11.18 11.96 C 11.578 12.253 11.848 12.612 12.004 13.049 L 12.887 12.729 C 12.664 12.112 12.277 11.6 11.734 11.206 L 11.18 11.96 Z M 12.004 13.049 C 12.164 13.483 12.199 13.995 12.094 14.592 L 13.02 14.753 C 13.145 14.026 13.109 13.346 12.887 12.729 L 12.004 13.049 Z M 12.094 14.592 C 11.992 15.194 11.781 15.667 11.484 16.03 L 12.211 16.624 C 12.629 16.112 12.891 15.483 13.02 14.753 L 12.094 14.592 Z M 11.48 16.034 C 11.195 16.389 10.82 16.635 10.348 16.776 L 10.613 17.674 C 11.262 17.483 11.797 17.131 12.211 16.624 L 11.48 16.034 Z M 10.348 16.776 C 9.879 16.917 9.32 16.94 8.656 16.823 L 8.496 17.749 C 9.266 17.881 9.977 17.866 10.617 17.674 L 10.348 16.776 Z M 8.656 16.823 L 6.82 16.503 L 6.66 17.428 L 8.496 17.749 L 8.656 16.823 Z M 8.613 16.381 C 9.305 16.503 9.938 16.44 10.441 16.092 L 9.906 15.323 C 9.684 15.475 9.332 15.553 8.773 15.456 L 8.613 16.381 Z M 10.441 16.092 C 10.949 15.741 11.23 15.163 11.355 14.46 L 10.43 14.299 C 10.332 14.862 10.137 15.167 9.906 15.323 L 10.441 16.092 Z M 11.355 14.46 C 11.477 13.76 11.406 13.12 11.043 12.62 L 10.285 13.174 C 10.445 13.393 10.527 13.741 10.43 14.299 L 11.355 14.46 Z M 11.043 12.624 C 10.691 12.131 10.113 11.858 9.422 11.737 L 9.262 12.659 C 9.82 12.756 10.125 12.948 10.285 13.17 L 11.043 12.624 Z M 9.422 11.737 L 8.605 11.592 L 8.441 12.518 L 9.262 12.659 L 9.422 11.737 Z M 8.063 11.975 L 7.414 15.694 L 8.336 15.858 L 8.984 12.135 L 8.063 11.975 Z M 7.793 16.237 L 8.613 16.381 L 8.773 15.456 L 7.957 15.315 L 7.793 16.237 Z M 7.793 16.237"/>
    <path style=" stroke:none;fill-rule:nonzero;fill:rgb(84.313726%,97.254902%,100%);fill-opacity:1;" d="M 6.723 16.963 C 6.477 16.92 6.297 16.823 6.184 16.667 C 6.074 16.506 6.043 16.307 6.086 16.057 L 6.934 11.19 C 6.977 10.94 7.078 10.76 7.234 10.651 C 7.391 10.542 7.594 10.506 7.844 10.553 L 9.68 10.874 C 10.391 10.995 10.977 11.233 11.441 11.581 C 11.91 11.928 12.242 12.362 12.43 12.889 C 12.621 13.417 12.656 14.01 12.543 14.67 C 12.426 15.338 12.188 15.889 11.832 16.327 C 11.48 16.76 11.027 17.061 10.465 17.225 C 9.91 17.389 9.277 17.409 8.563 17.284 L 6.723 16.963 Z M 8.68 15.92 C 9.301 16.026 9.797 15.956 10.156 15.71 C 10.527 15.456 10.766 15.01 10.879 14.381 C 10.988 13.749 10.91 13.256 10.648 12.897 C 10.391 12.542 9.953 12.307 9.328 12.198 L 8.508 12.053 L 7.859 15.776 L 8.68 15.92 Z M 8.68 15.92"/>
    <path style=" stroke:none;fill-rule:nonzero;fill:rgb(100%,70.19608%,70.19608%);fill-opacity:1;" d="M 6.465 15.585 L 6.16 15.936 L 6.172 15.948 L 6.465 15.585 Z M 6.563 16.651 L 6.207 16.346 L 6.563 16.651 Z M 5.391 16.682 L 5.699 16.331 L 5.695 16.327 L 5.391 16.682 Z M 2.547 14.21 L 2.855 13.854 L 1.984 13.1 L 2.078 14.245 L 2.547 14.21 Z M 2.543 17.014 L 2.895 17.327 L 2.902 17.319 L 2.543 17.014 Z M 1.301 17.116 L 0.992 17.467 L 0.996 17.475 L 1.004 17.479 L 1.301 17.116 Z M 0.801 10.979 L 0.441 10.674 L 0.801 10.979 Z M 2.043 10.878 L 1.738 11.233 L 1.746 11.241 L 2.043 10.878 Z M 2.488 13.483 L 2.02 13.518 L 2.113 14.655 L 2.844 13.784 L 2.488 13.483 Z M 4.859 10.667 L 5.219 10.967 L 5.223 10.963 L 4.859 10.667 Z M 5.934 10.557 L 5.633 10.917 L 5.637 10.92 L 5.641 10.92 L 5.934 10.557 Z M 5.988 11.647 L 5.637 11.338 L 5.633 11.338 L 5.633 11.342 L 5.988 11.647 Z M 4.25 13.651 L 3.898 13.346 L 3.59 13.698 L 3.945 14.006 L 4.25 13.651 Z M 6.172 15.948 C 6.254 16.014 6.277 16.073 6.281 16.135 L 7.215 16.061 C 7.188 15.717 7.023 15.432 6.762 15.221 L 6.172 15.948 Z M 6.281 16.135 C 6.289 16.206 6.273 16.268 6.207 16.346 L 6.922 16.956 C 7.137 16.702 7.242 16.397 7.215 16.061 L 6.281 16.135 Z M 6.207 16.346 C 6.141 16.424 6.078 16.452 6 16.46 L 6.078 17.393 C 6.414 17.366 6.703 17.21 6.922 16.956 L 6.207 16.346 Z M 6 16.46 C 5.926 16.463 5.828 16.444 5.699 16.331 L 5.078 17.034 C 5.359 17.28 5.699 17.424 6.078 17.393 L 6 16.46 Z M 5.695 16.327 L 2.855 13.854 L 2.238 14.561 L 5.082 17.034 L 5.695 16.327 Z M 2.078 14.245 L 2.258 16.42 L 3.191 16.342 L 3.012 14.17 L 2.078 14.245 Z M 2.258 16.42 C 2.27 16.577 2.23 16.659 2.188 16.713 L 2.902 17.319 C 3.137 17.042 3.219 16.698 3.191 16.342 L 2.258 16.42 Z M 2.191 16.706 C 2.148 16.753 2.07 16.807 1.898 16.819 L 1.973 17.756 C 2.328 17.725 2.656 17.596 2.895 17.327 L 2.191 16.706 Z M 1.898 16.819 C 1.734 16.835 1.648 16.795 1.598 16.753 L 1.004 17.479 C 1.285 17.706 1.625 17.784 1.973 17.756 L 1.898 16.819 Z M 1.613 16.768 C 1.563 16.721 1.512 16.643 1.496 16.479 L 0.563 16.557 C 0.59 16.909 0.723 17.229 0.992 17.467 L 1.613 16.768 Z M 1.496 16.479 L 1.094 11.557 L 0.16 11.631 L 0.563 16.557 L 1.496 16.479 Z M 1.094 11.557 C 1.082 11.401 1.117 11.327 1.156 11.284 L 0.441 10.674 C 0.211 10.948 0.133 11.284 0.16 11.631 L 1.094 11.557 Z M 1.156 11.284 C 1.203 11.229 1.277 11.178 1.438 11.167 L 1.359 10.229 C 1.004 10.26 0.68 10.397 0.441 10.674 L 1.156 11.284 Z M 1.438 11.167 C 1.605 11.151 1.688 11.19 1.738 11.233 L 2.344 10.518 C 2.066 10.28 1.719 10.202 1.359 10.229 L 1.438 11.167 Z M 1.746 11.241 C 1.793 11.28 1.844 11.346 1.855 11.495 L 2.789 11.417 C 2.758 11.065 2.621 10.745 2.34 10.514 L 1.746 11.241 Z M 1.855 11.495 L 2.02 13.518 L 2.953 13.444 L 2.789 11.417 L 1.855 11.495 Z M 2.844 13.784 L 5.219 10.967 L 4.5 10.362 L 2.129 13.178 L 2.844 13.784 Z M 5.223 10.963 C 5.301 10.866 5.363 10.846 5.422 10.838 L 5.344 9.905 C 4.996 9.932 4.711 10.108 4.496 10.37 L 5.223 10.963 Z M 5.422 10.838 C 5.488 10.835 5.555 10.85 5.633 10.917 L 6.238 10.202 C 5.984 9.987 5.68 9.878 5.344 9.905 L 5.422 10.838 Z M 5.641 10.92 C 5.711 10.979 5.734 11.034 5.742 11.104 L 6.676 11.026 C 6.648 10.69 6.492 10.405 6.23 10.194 L 5.641 10.92 Z M 5.742 11.104 C 5.746 11.151 5.734 11.225 5.637 11.338 L 6.34 11.956 C 6.566 11.698 6.703 11.381 6.676 11.026 L 5.742 11.104 Z M 5.633 11.342 L 3.898 13.346 L 4.605 13.96 L 6.34 11.956 L 5.633 11.342 Z M 3.945 14.006 L 6.16 15.936 L 6.773 15.229 L 4.559 13.299 L 3.945 14.006 Z M 3.945 14.006"/>
    <path style=" stroke:none;fill-rule:nonzero;fill:rgb(100%,89.803922%,84.313726%);fill-opacity:1;" d="M 6.465 15.585 C 6.637 15.725 6.734 15.897 6.75 16.096 C 6.766 16.299 6.703 16.483 6.563 16.651 C 6.422 16.815 6.246 16.909 6.039 16.924 C 5.813 16.944 5.594 16.862 5.391 16.682 L 2.547 14.21 L 2.723 16.381 C 2.746 16.639 2.684 16.85 2.543 17.014 C 2.402 17.174 2.199 17.268 1.938 17.288 C 1.68 17.307 1.469 17.253 1.301 17.116 C 1.141 16.975 1.051 16.776 1.031 16.518 L 0.629 11.596 C 0.605 11.342 0.664 11.139 0.801 10.979 C 0.941 10.811 1.141 10.717 1.398 10.698 C 1.66 10.678 1.875 10.737 2.043 10.878 C 2.207 11.01 2.301 11.206 2.32 11.456 L 2.488 13.483 L 4.859 10.667 C 5.008 10.487 5.18 10.389 5.383 10.374 C 5.586 10.354 5.77 10.417 5.934 10.557 C 6.102 10.694 6.191 10.862 6.207 11.065 C 6.227 11.268 6.152 11.463 5.988 11.647 L 4.25 13.651 L 6.465 15.585 Z M 6.465 15.585"/>
  </g>
</svg>